<svg width="247" height="91" viewBox="0 0 247 91" fill="none" xmlns="http://www.w3.org/2000/svg">
<path d="M0 4C0 1.79086 1.79086 0 4 0H243C245.209 0 247 1.79086 247 4V64C247 66.2091 245.209 68 243 68H4C1.79086 68 0 66.2091 0 64V4Z" fill="#B450AC"/>
<path d="M66.5508 29.04C66.5508 30.48 66.2948 31.616 65.7828 32.448C65.2708 33.248 64.5188 34 63.5268 34.704C63.2708 34.864 62.9188 35.056 62.4708 35.28C62.0228 35.504 61.5268 35.712 60.9828 35.904C60.4388 36.096 59.8628 36.256 59.2548 36.384C58.6468 36.512 58.0868 36.576 57.5748 36.576C56.1348 36.576 55.0468 36.416 54.3108 36.096C53.5748 35.808 53.2068 35.456 53.2068 35.04C53.2068 34.592 53.3348 34.224 53.5908 33.936C53.8468 33.648 54.0708 33.488 54.2628 33.456L54.7908 33.84C54.9508 34 55.1748 34.176 55.4628 34.368C55.7508 34.528 56.2148 34.608 56.8548 34.608C57.4628 34.608 58.1988 34.512 59.0628 34.32C59.9268 34.096 60.7428 33.776 61.5108 33.36C62.3108 32.912 62.9828 32.368 63.5268 31.728C64.1028 31.088 64.3908 30.352 64.3908 29.52C64.3908 28.784 63.8308 28.112 62.7108 27.504C61.6228 26.864 59.8948 26.432 57.5268 26.208C56.3108 26.112 55.1108 25.968 53.9268 25.776C52.7428 25.552 51.6708 25.264 50.7108 24.912C49.7828 24.528 49.0308 24.064 48.4548 23.52C47.8788 22.944 47.5908 22.24 47.5908 21.408C47.5908 20.608 47.8148 19.84 48.2628 19.104C48.7108 18.368 49.2548 17.696 49.8948 17.088C50.5668 16.448 51.2548 15.888 51.9588 15.408C52.6628 14.928 53.2548 14.528 53.7348 14.208C54.1188 13.984 54.6468 13.696 55.3188 13.344C56.0228 12.96 56.7588 12.608 57.5268 12.288C58.3268 11.936 59.1108 11.648 59.8788 11.424C60.6788 11.168 61.3508 11.04 61.8948 11.04C62.5348 11.04 62.9668 11.216 63.1908 11.568C63.4148 11.92 63.5268 12.416 63.5268 13.056C63.5268 13.6 63.4628 14.176 63.3348 14.784C63.2068 15.392 63.0628 15.984 62.9028 16.56C62.7428 17.136 62.5828 17.648 62.4228 18.096C62.2948 18.512 62.1988 18.784 62.1348 18.912C62.0068 19.2 61.8628 19.392 61.7028 19.488C61.5428 19.584 61.4308 19.632 61.3668 19.632C61.2388 19.632 61.1748 19.552 61.1748 19.392C61.1748 19.296 61.1908 19.12 61.2228 18.864C61.2868 18.576 61.3508 18.24 61.4148 17.856C61.5108 17.472 61.5748 17.056 61.6068 16.608C61.6708 16.16 61.7028 15.712 61.7028 15.264C61.7028 14.56 61.6708 14.048 61.6068 13.728C61.5428 13.408 61.2868 13.248 60.8388 13.248C60.3908 13.248 59.7828 13.376 59.0148 13.632C58.2468 13.856 57.4628 14.144 56.6628 14.496C55.7988 14.88 54.9508 15.376 54.1188 15.984C53.3188 16.592 52.5988 17.216 51.9588 17.856C51.3188 18.496 50.7908 19.12 50.3748 19.728C49.9908 20.304 49.7988 20.768 49.7988 21.12C49.7988 21.504 50.0548 21.872 50.5668 22.224C51.1108 22.544 51.7828 22.832 52.5828 23.088C53.4148 23.344 54.3268 23.568 55.3188 23.76C56.3108 23.952 57.2868 24.096 58.2468 24.192C59.0468 24.288 59.9268 24.416 60.8868 24.576C61.8468 24.736 62.7428 24.992 63.5748 25.344C64.4068 25.696 65.1108 26.176 65.6868 26.784C66.2628 27.36 66.5508 28.112 66.5508 29.04ZM82.5374 30.96C82.5694 31.024 82.5854 31.12 82.5854 31.248C82.5854 31.44 82.4414 31.728 82.1534 32.112C82.0574 32.24 81.8494 32.448 81.5294 32.736C81.2094 33.024 80.7774 33.312 80.2334 33.6C79.6894 33.888 79.0174 34.144 78.2174 34.368C77.4494 34.592 76.5374 34.704 75.4814 34.704C74.7454 34.704 74.0254 34.544 73.3214 34.224C72.6174 33.872 71.9934 33.376 71.4494 32.736C70.9054 32.064 70.4574 31.248 70.1054 30.288C69.7534 29.296 69.5774 28.144 69.5774 26.832C69.5774 25.584 69.7374 24.416 70.0574 23.328C70.3774 22.24 70.7774 21.28 71.2574 20.448C71.7694 19.616 72.3294 18.96 72.9374 18.48C73.5454 18 74.1374 17.76 74.7134 17.76C75.2254 17.76 75.7374 17.872 76.2494 18.096C76.7934 18.288 77.2734 18.544 77.6894 18.864C78.1374 19.184 78.4894 19.552 78.7454 19.968C79.0014 20.352 79.1294 20.752 79.1294 21.168C79.1294 21.648 78.9054 22.144 78.4574 22.656C78.0414 23.168 77.5294 23.648 76.9214 24.096C76.3134 24.512 75.7054 24.864 75.0974 25.152C74.4894 25.408 74.0094 25.536 73.6574 25.536C73.4654 25.536 73.2894 25.456 73.1294 25.296C73.0014 25.104 72.9374 24.88 72.9374 24.624C72.9374 24.176 73.1294 23.824 73.5134 23.568C73.9294 23.312 74.3774 23.088 74.8574 22.896C75.3374 22.672 75.7694 22.416 76.1534 22.128C76.5694 21.84 76.7774 21.44 76.7774 20.928C76.7774 20.864 76.6974 20.704 76.5374 20.448C76.3774 20.192 75.9454 20.064 75.2414 20.064C74.9214 20.064 74.5534 20.256 74.1374 20.64C73.7214 20.992 73.3214 21.488 72.9374 22.128C72.5534 22.736 72.2334 23.472 71.9774 24.336C71.7214 25.168 71.5934 26.08 71.5934 27.072C71.5934 27.904 71.7374 28.656 72.0254 29.328C72.3454 30 72.7454 30.576 73.2254 31.056C73.7054 31.504 74.2654 31.856 74.9054 32.112C75.5454 32.368 76.2014 32.496 76.8734 32.496C77.3534 32.496 77.8654 32.4 78.4094 32.208C78.9854 31.984 79.5134 31.76 79.9934 31.536C80.5054 31.28 80.9374 31.056 81.2894 30.864C81.6734 30.64 81.9134 30.528 82.0094 30.528C82.1054 30.528 82.2014 30.576 82.2974 30.672C82.4254 30.768 82.5054 30.864 82.5374 30.96ZM99.7518 27.264C99.7518 27.584 99.7038 27.92 99.6078 28.272C99.5118 28.592 99.4158 28.864 99.3198 29.088C99.2558 29.184 98.9518 29.52 98.4078 30.096C97.8958 30.64 97.2398 31.216 96.4398 31.824C95.6718 32.432 94.7918 32.992 93.7998 33.504C92.8398 33.984 91.9118 34.224 91.0158 34.224C90.4718 34.224 89.9118 34.128 89.3358 33.936C88.7918 33.744 88.2798 33.44 87.7998 33.024C87.3198 32.576 86.9198 32.032 86.5998 31.392C86.3118 30.752 86.1678 29.968 86.1678 29.04C86.1678 27.504 86.4238 26.112 86.9358 24.864C87.4478 23.616 87.9598 22.624 88.4718 21.888C88.6958 21.536 88.9838 21.184 89.3358 20.832C89.7198 20.448 90.0878 20.112 90.4398 19.824C90.7918 19.504 91.1118 19.248 91.3998 19.056C91.7198 18.864 91.9438 18.768 92.0718 18.768C92.3598 18.768 92.6158 18.848 92.8398 19.008C93.0958 19.168 93.2238 19.328 93.2238 19.488C93.2238 19.744 93.1438 19.968 92.9838 20.16C92.8558 20.32 92.6638 20.512 92.4078 20.736C92.1518 20.928 91.8478 21.2 91.4958 21.552C91.1438 21.872 90.7758 22.304 90.3918 22.848C89.6238 23.904 89.0478 24.992 88.6638 26.112C88.3118 27.2 88.1358 28.16 88.1358 28.992C88.1358 29.824 88.4398 30.496 89.0478 31.008C89.6878 31.488 90.3438 31.728 91.0158 31.728C92.2318 31.728 93.3038 31.456 94.2318 30.912C95.1918 30.368 96.0078 29.76 96.6798 29.088C97.3518 28.416 97.8958 27.808 98.3118 27.264C98.7278 26.72 99.0318 26.448 99.2238 26.448C99.5758 26.448 99.7518 26.72 99.7518 27.264ZM119.392 28.032C119.392 28.32 119.2 28.624 118.816 28.944C118.432 29.264 117.984 29.568 117.472 29.856C116.96 30.112 116.432 30.336 115.888 30.528C115.376 30.72 114.992 30.816 114.736 30.816C114.448 30.816 114.128 30.736 113.776 30.576C113.456 30.416 113.136 30.224 112.816 30C112.528 29.776 112.272 29.568 112.048 29.376C111.824 29.184 111.68 29.056 111.616 28.992C111.52 29.088 111.376 29.28 111.184 29.568C110.992 29.856 110.752 30.176 110.464 30.528C110.208 30.848 109.92 31.136 109.6 31.392C109.312 31.648 109.008 31.776 108.688 31.776C107.856 31.776 107.136 31.328 106.528 30.432C105.92 29.536 105.408 28.512 104.992 27.36C104.608 26.208 104.304 25.104 104.08 24.048C103.888 22.96 103.792 22.224 103.792 21.84C103.792 21.616 103.904 21.44 104.128 21.312C104.384 21.152 104.576 21.072 104.704 21.072C105.152 21.072 105.456 21.232 105.616 21.552C105.776 21.84 105.856 22.16 105.856 22.512C105.856 22.8 105.936 23.312 106.096 24.048C106.288 24.784 106.512 25.536 106.768 26.304C107.024 27.072 107.296 27.76 107.584 28.368C107.872 28.944 108.128 29.232 108.352 29.232C108.768 29.232 109.12 28.976 109.408 28.464C109.728 27.92 109.984 27.312 110.176 26.64C110.368 25.936 110.512 25.28 110.608 24.672C110.704 24.032 110.752 23.616 110.752 23.424C110.752 23.392 110.752 23.296 110.752 23.136C110.784 22.944 110.816 22.752 110.848 22.56C110.88 22.368 110.896 22.192 110.896 22.032C110.928 21.872 110.944 21.76 110.944 21.696C110.944 21.472 110.896 21.328 110.8 21.264C110.704 21.168 110.656 20.992 110.656 20.736C110.656 20.544 110.752 20.368 110.944 20.208C111.136 20.016 111.552 19.92 112.192 19.92C112.448 19.92 112.64 20 112.768 20.16C112.928 20.288 113.04 20.448 113.104 20.64C113.168 20.832 113.2 21.024 113.2 21.216C113.232 21.376 113.248 21.488 113.248 21.552C113.248 21.584 113.232 21.808 113.2 22.224C113.168 22.64 113.136 23.104 113.104 23.616C113.104 24.096 113.088 24.56 113.056 25.008C113.024 25.456 113.008 25.728 113.008 25.824C113.008 25.92 113.056 26.112 113.152 26.4C113.248 26.688 113.36 26.992 113.488 27.312C113.648 27.6 113.824 27.872 114.016 28.128C114.208 28.352 114.416 28.464 114.64 28.464C115.024 28.464 115.376 28.416 115.696 28.32C116.048 28.192 116.368 28.064 116.656 27.936C116.976 27.776 117.264 27.648 117.52 27.552C117.776 27.424 118.016 27.36 118.24 27.36C118.528 27.36 118.784 27.424 119.008 27.552C119.264 27.68 119.392 27.84 119.392 28.032ZM132.646 21.36C132.646 21.584 132.55 21.776 132.358 21.936C132.166 22.064 131.942 22.176 131.686 22.272C131.43 22.368 131.174 22.448 130.918 22.512C130.662 22.544 130.454 22.56 130.294 22.56C129.814 22.56 129.494 22.528 129.334 22.464C129.174 22.4 129.046 22.368 128.95 22.368C128.15 22.368 127.51 22.432 127.03 22.56C126.55 22.688 126.166 22.896 125.878 23.184C125.622 23.472 125.446 23.84 125.35 24.288C125.286 24.704 125.254 25.216 125.254 25.824C125.254 26.848 125.286 27.664 125.35 28.272C125.446 28.88 125.526 29.376 125.59 29.76C125.686 30.144 125.766 30.448 125.83 30.672C125.926 30.864 125.974 31.056 125.974 31.248C125.974 31.504 125.83 31.776 125.542 32.064C125.286 32.352 125.046 32.496 124.822 32.496C124.438 32.496 124.086 32.16 123.766 31.488C123.478 30.784 123.222 29.968 122.998 29.04C122.806 28.08 122.646 27.136 122.518 26.208C122.39 25.28 122.326 24.576 122.326 24.096C122.326 23.552 122.374 23.04 122.47 22.56C122.566 22.048 122.694 21.616 122.854 21.264C123.014 20.88 123.19 20.576 123.382 20.352C123.574 20.128 123.766 20.016 123.958 20.016C124.118 20.016 124.246 20.08 124.342 20.208C124.438 20.304 124.518 20.432 124.582 20.592C124.646 20.72 124.71 20.848 124.774 20.976C124.87 21.072 124.982 21.12 125.11 21.12C125.398 21.12 125.862 20.976 126.502 20.688C127.142 20.4 127.926 20.256 128.854 20.256C129.718 20.256 130.358 20.288 130.774 20.352C131.222 20.384 131.654 20.48 132.07 20.64C132.166 20.672 132.278 20.752 132.406 20.88C132.566 20.976 132.646 21.136 132.646 21.36ZM149.85 30.96C149.882 31.024 149.898 31.12 149.898 31.248C149.898 31.44 149.754 31.728 149.466 32.112C149.37 32.24 149.162 32.448 148.842 32.736C148.522 33.024 148.09 33.312 147.546 33.6C147.002 33.888 146.33 34.144 145.53 34.368C144.762 34.592 143.85 34.704 142.794 34.704C142.058 34.704 141.338 34.544 140.634 34.224C139.93 33.872 139.306 33.376 138.762 32.736C138.218 32.064 137.77 31.248 137.418 30.288C137.066 29.296 136.89 28.144 136.89 26.832C136.89 25.584 137.05 24.416 137.37 23.328C137.69 22.24 138.09 21.28 138.57 20.448C139.082 19.616 139.642 18.96 140.25 18.48C140.858 18 141.45 17.76 142.026 17.76C142.538 17.76 143.05 17.872 143.562 18.096C144.106 18.288 144.586 18.544 145.002 18.864C145.45 19.184 145.802 19.552 146.058 19.968C146.314 20.352 146.442 20.752 146.442 21.168C146.442 21.648 146.218 22.144 145.77 22.656C145.354 23.168 144.842 23.648 144.234 24.096C143.626 24.512 143.018 24.864 142.41 25.152C141.802 25.408 141.322 25.536 140.97 25.536C140.778 25.536 140.602 25.456 140.442 25.296C140.314 25.104 140.25 24.88 140.25 24.624C140.25 24.176 140.442 23.824 140.826 23.568C141.242 23.312 141.69 23.088 142.17 22.896C142.65 22.672 143.082 22.416 143.466 22.128C143.882 21.84 144.09 21.44 144.09 20.928C144.09 20.864 144.01 20.704 143.85 20.448C143.69 20.192 143.258 20.064 142.554 20.064C142.234 20.064 141.866 20.256 141.45 20.64C141.034 20.992 140.634 21.488 140.25 22.128C139.866 22.736 139.546 23.472 139.29 24.336C139.034 25.168 138.906 26.08 138.906 27.072C138.906 27.904 139.05 28.656 139.338 29.328C139.658 30 140.058 30.576 140.538 31.056C141.018 31.504 141.578 31.856 142.218 32.112C142.858 32.368 143.514 32.496 144.186 32.496C144.666 32.496 145.178 32.4 145.722 32.208C146.298 31.984 146.826 31.76 147.306 31.536C147.818 31.28 148.25 31.056 148.602 30.864C148.986 30.64 149.226 30.528 149.322 30.528C149.418 30.528 149.514 30.576 149.61 30.672C149.738 30.768 149.818 30.864 149.85 30.96ZM166.824 28.272C166.824 28.432 166.744 28.592 166.584 28.752C166.456 28.88 166.376 29.024 166.344 29.184C166.344 29.536 166.408 29.872 166.536 30.192C166.696 30.512 166.776 30.896 166.776 31.344C166.776 31.76 166.648 31.968 166.392 31.968C166.072 31.968 165.832 32.016 165.672 32.112C165.544 32.176 165.304 32.24 164.952 32.304C164.76 32.304 164.552 32.128 164.328 31.776C164.2 31.616 164.088 31.424 163.992 31.2C163.992 31.168 163.896 31.232 163.704 31.392C163.544 31.552 163.256 31.744 162.84 31.968C162.456 32.16 161.912 32.352 161.208 32.544C160.536 32.704 159.672 32.784 158.616 32.784C157.72 32.784 156.936 32.592 156.264 32.208C155.592 31.792 155.032 31.264 154.584 30.624C154.168 29.984 153.848 29.264 153.624 28.464C153.432 27.632 153.336 26.8 153.336 25.968C153.336 25.2 153.416 24.48 153.576 23.808C153.768 23.104 154.024 22.496 154.344 21.984C154.664 21.44 155.064 21.008 155.544 20.688C156.024 20.368 156.584 20.208 157.224 20.208C157.832 20.208 158.44 20.4 159.048 20.784C159.656 21.168 160.2 21.584 160.68 22.032C161.16 22.48 161.544 22.896 161.832 23.28C162.152 23.632 162.312 23.808 162.312 23.808C161.864 21.312 161.464 19.056 161.112 17.04C160.952 16.176 160.792 15.328 160.632 14.496C160.504 13.632 160.376 12.864 160.248 12.192C160.12 11.52 160.008 10.96 159.912 10.512C159.848 10.032 159.816 9.744 159.816 9.648C159.784 9.456 159.752 9.12 159.72 8.64C159.688 8.128 159.656 7.6 159.624 7.056C159.592 6.512 159.56 6.016 159.528 5.568C159.496 5.12 159.464 4.832 159.432 4.704C159.336 4.384 159.208 3.984 159.048 3.504C158.92 3.024 158.856 2.752 158.856 2.688C158.856 2.528 158.936 2.336 159.096 2.112C159.256 1.856 159.464 1.728 159.72 1.728C159.912 1.728 160.088 1.744 160.248 1.776C160.408 1.808 160.552 1.904 160.68 2.064C160.808 2.224 160.92 2.48 161.016 2.832C161.144 3.152 161.256 3.616 161.352 4.224C161.384 4.544 161.48 5.152 161.64 6.048C161.8 6.944 161.96 7.92 162.12 8.976C162.28 10.032 162.44 11.04 162.6 12C162.76 12.96 162.872 13.664 162.936 14.112C163.096 15.328 163.304 16.656 163.56 18.096C163.848 19.504 164.136 20.864 164.424 22.176C164.712 23.488 165 24.656 165.288 25.68C165.576 26.672 165.832 27.344 166.056 27.696C166.12 27.824 166.248 27.92 166.44 27.984C166.632 28.016 166.76 28.112 166.824 28.272ZM163.272 29.232C163.24 29.136 163.032 28.736 162.648 28.032C162.296 27.296 161.832 26.512 161.256 25.68C160.712 24.816 160.088 24.048 159.384 23.376C158.712 22.704 158.056 22.368 157.416 22.368C156.872 22.368 156.424 22.784 156.072 23.616C155.752 24.448 155.592 25.408 155.592 26.496C155.592 27.712 155.944 28.688 156.648 29.424C157.384 30.16 158.2 30.528 159.096 30.528C159.864 30.528 160.664 30.4 161.496 30.144C162.328 29.888 162.92 29.584 163.272 29.232Z" fill="white"/>
<path d="M66.5508 30.04C66.5508 31.48 66.2948 32.616 65.7828 33.448C65.2708 34.248 64.5188 35 63.5268 35.704C63.2708 35.864 62.9188 36.056 62.4708 36.28C62.0228 36.504 61.5268 36.712 60.9828 36.904C60.4388 37.096 59.8628 37.256 59.2548 37.384C58.6468 37.512 58.0868 37.576 57.5748 37.576C56.1348 37.576 55.0468 37.416 54.3108 37.096C53.5748 36.808 53.2068 36.456 53.2068 36.04C53.2068 35.592 53.3348 35.224 53.5908 34.936C53.8468 34.648 54.0708 34.488 54.2628 34.456L54.7908 34.84C54.9508 35 55.1748 35.176 55.4628 35.368C55.7508 35.528 56.2148 35.608 56.8548 35.608C57.4628 35.608 58.1988 35.512 59.0628 35.32C59.9268 35.096 60.7428 34.776 61.5108 34.36C62.3108 33.912 62.9828 33.368 63.5268 32.728C64.1028 32.088 64.3908 31.352 64.3908 30.52C64.3908 29.784 63.8308 29.112 62.7108 28.504C61.6228 27.864 59.8948 27.432 57.5268 27.208C56.3108 27.112 55.1108 26.968 53.9268 26.776C52.7428 26.552 51.6708 26.264 50.7108 25.912C49.7828 25.528 49.0308 25.064 48.4548 24.52C47.8788 23.944 47.5908 23.24 47.5908 22.408C47.5908 21.608 47.8148 20.84 48.2628 20.104C48.7108 19.368 49.2548 18.696 49.8948 18.088C50.5668 17.448 51.2548 16.888 51.9588 16.408C52.6628 15.928 53.2548 15.528 53.7348 15.208C54.1188 14.984 54.6468 14.696 55.3188 14.344C56.0228 13.96 56.7588 13.608 57.5268 13.288C58.3268 12.936 59.1108 12.648 59.8788 12.424C60.6788 12.168 61.3508 12.04 61.8948 12.04C62.5348 12.04 62.9668 12.216 63.1908 12.568C63.4148 12.92 63.5268 13.416 63.5268 14.056C63.5268 14.6 63.4628 15.176 63.3348 15.784C63.2068 16.392 63.0628 16.984 62.9028 17.56C62.7428 18.136 62.5828 18.648 62.4228 19.096C62.2948 19.512 62.1988 19.784 62.1348 19.912C62.0068 20.2 61.8628 20.392 61.7028 20.488C61.5428 20.584 61.4308 20.632 61.3668 20.632C61.2388 20.632 61.1748 20.552 61.1748 20.392C61.1748 20.296 61.1908 20.12 61.2228 19.864C61.2868 19.576 61.3508 19.24 61.4148 18.856C61.5108 18.472 61.5748 18.056 61.6068 17.608C61.6708 17.16 61.7028 16.712 61.7028 16.264C61.7028 15.56 61.6708 15.048 61.6068 14.728C61.5428 14.408 61.2868 14.248 60.8388 14.248C60.3908 14.248 59.7828 14.376 59.0148 14.632C58.2468 14.856 57.4628 15.144 56.6628 15.496C55.7988 15.88 54.9508 16.376 54.1188 16.984C53.3188 17.592 52.5988 18.216 51.9588 18.856C51.3188 19.496 50.7908 20.12 50.3748 20.728C49.9908 21.304 49.7988 21.768 49.7988 22.12C49.7988 22.504 50.0548 22.872 50.5668 23.224C51.1108 23.544 51.7828 23.832 52.5828 24.088C53.4148 24.344 54.3268 24.568 55.3188 24.76C56.3108 24.952 57.2868 25.096 58.2468 25.192C59.0468 25.288 59.9268 25.416 60.8868 25.576C61.8468 25.736 62.7428 25.992 63.5748 26.344C64.4068 26.696 65.1108 27.176 65.6868 27.784C66.2628 28.36 66.5508 29.112 66.5508 30.04ZM82.5374 31.96C82.5694 32.024 82.5854 32.12 82.5854 32.248C82.5854 32.44 82.4414 32.728 82.1534 33.112C82.0574 33.24 81.8494 33.448 81.5294 33.736C81.2094 34.024 80.7774 34.312 80.2334 34.6C79.6894 34.888 79.0174 35.144 78.2174 35.368C77.4494 35.592 76.5374 35.704 75.4814 35.704C74.7454 35.704 74.0254 35.544 73.3214 35.224C72.6174 34.872 71.9934 34.376 71.4494 33.736C70.9054 33.064 70.4574 32.248 70.1054 31.288C69.7534 30.296 69.5774 29.144 69.5774 27.832C69.5774 26.584 69.7374 25.416 70.0574 24.328C70.3774 23.24 70.7774 22.28 71.2574 21.448C71.7694 20.616 72.3294 19.96 72.9374 19.48C73.5454 19 74.1374 18.76 74.7134 18.76C75.2254 18.76 75.7374 18.872 76.2494 19.096C76.7934 19.288 77.2734 19.544 77.6894 19.864C78.1374 20.184 78.4894 20.552 78.7454 20.968C79.0014 21.352 79.1294 21.752 79.1294 22.168C79.1294 22.648 78.9054 23.144 78.4574 23.656C78.0414 24.168 77.5294 24.648 76.9214 25.096C76.3134 25.512 75.7054 25.864 75.0974 26.152C74.4894 26.408 74.0094 26.536 73.6574 26.536C73.4654 26.536 73.2894 26.456 73.1294 26.296C73.0014 26.104 72.9374 25.88 72.9374 25.624C72.9374 25.176 73.1294 24.824 73.5134 24.568C73.9294 24.312 74.3774 24.088 74.8574 23.896C75.3374 23.672 75.7694 23.416 76.1534 23.128C76.5694 22.84 76.7774 22.44 76.7774 21.928C76.7774 21.864 76.6974 21.704 76.5374 21.448C76.3774 21.192 75.9454 21.064 75.2414 21.064C74.9214 21.064 74.5534 21.256 74.1374 21.64C73.7214 21.992 73.3214 22.488 72.9374 23.128C72.5534 23.736 72.2334 24.472 71.9774 25.336C71.7214 26.168 71.5934 27.08 71.5934 28.072C71.5934 28.904 71.7374 29.656 72.0254 30.328C72.3454 31 72.7454 31.576 73.2254 32.056C73.7054 32.504 74.2654 32.856 74.9054 33.112C75.5454 33.368 76.2014 33.496 76.8734 33.496C77.3534 33.496 77.8654 33.4 78.4094 33.208C78.9854 32.984 79.5134 32.76 79.9934 32.536C80.5054 32.28 80.9374 32.056 81.2894 31.864C81.6734 31.64 81.9134 31.528 82.0094 31.528C82.1054 31.528 82.2014 31.576 82.2974 31.672C82.4254 31.768 82.5054 31.864 82.5374 31.96ZM99.7518 28.264C99.7518 28.584 99.7038 28.92 99.6078 29.272C99.5118 29.592 99.4158 29.864 99.3198 30.088C99.2558 30.184 98.9518 30.52 98.4078 31.096C97.8958 31.64 97.2398 32.216 96.4398 32.824C95.6718 33.432 94.7918 33.992 93.7998 34.504C92.8398 34.984 91.9118 35.224 91.0158 35.224C90.4718 35.224 89.9118 35.128 89.3358 34.936C88.7918 34.744 88.2798 34.44 87.7998 34.024C87.3198 33.576 86.9198 33.032 86.5998 32.392C86.3118 31.752 86.1678 30.968 86.1678 30.04C86.1678 28.504 86.4238 27.112 86.9358 25.864C87.4478 24.616 87.9598 23.624 88.4718 22.888C88.6958 22.536 88.9838 22.184 89.3358 21.832C89.7198 21.448 90.0878 21.112 90.4398 20.824C90.7918 20.504 91.1118 20.248 91.3998 20.056C91.7198 19.864 91.9438 19.768 92.0718 19.768C92.3598 19.768 92.6158 19.848 92.8398 20.008C93.0958 20.168 93.2238 20.328 93.2238 20.488C93.2238 20.744 93.1438 20.968 92.9838 21.16C92.8558 21.32 92.6638 21.512 92.4078 21.736C92.1518 21.928 91.8478 22.2 91.4958 22.552C91.1438 22.872 90.7758 23.304 90.3918 23.848C89.6238 24.904 89.0478 25.992 88.6638 27.112C88.3118 28.2 88.1358 29.16 88.1358 29.992C88.1358 30.824 88.4398 31.496 89.0478 32.008C89.6878 32.488 90.3438 32.728 91.0158 32.728C92.2318 32.728 93.3038 32.456 94.2318 31.912C95.1918 31.368 96.0078 30.76 96.6798 30.088C97.3518 29.416 97.8958 28.808 98.3118 28.264C98.7278 27.72 99.0318 27.448 99.2238 27.448C99.5758 27.448 99.7518 27.72 99.7518 28.264ZM119.392 29.032C119.392 29.32 119.2 29.624 118.816 29.944C118.432 30.264 117.984 30.568 117.472 30.856C116.96 31.112 116.432 31.336 115.888 31.528C115.376 31.72 114.992 31.816 114.736 31.816C114.448 31.816 114.128 31.736 113.776 31.576C113.456 31.416 113.136 31.224 112.816 31C112.528 30.776 112.272 30.568 112.048 30.376C111.824 30.184 111.68 30.056 111.616 29.992C111.52 30.088 111.376 30.28 111.184 30.568C110.992 30.856 110.752 31.176 110.464 31.528C110.208 31.848 109.92 32.136 109.6 32.392C109.312 32.648 109.008 32.776 108.688 32.776C107.856 32.776 107.136 32.328 106.528 31.432C105.92 30.536 105.408 29.512 104.992 28.36C104.608 27.208 104.304 26.104 104.08 25.048C103.888 23.96 103.792 23.224 103.792 22.84C103.792 22.616 103.904 22.44 104.128 22.312C104.384 22.152 104.576 22.072 104.704 22.072C105.152 22.072 105.456 22.232 105.616 22.552C105.776 22.84 105.856 23.16 105.856 23.512C105.856 23.8 105.936 24.312 106.096 25.048C106.288 25.784 106.512 26.536 106.768 27.304C107.024 28.072 107.296 28.76 107.584 29.368C107.872 29.944 108.128 30.232 108.352 30.232C108.768 30.232 109.12 29.976 109.408 29.464C109.728 28.92 109.984 28.312 110.176 27.64C110.368 26.936 110.512 26.28 110.608 25.672C110.704 25.032 110.752 24.616 110.752 24.424C110.752 24.392 110.752 24.296 110.752 24.136C110.784 23.944 110.816 23.752 110.848 23.56C110.88 23.368 110.896 23.192 110.896 23.032C110.928 22.872 110.944 22.76 110.944 22.696C110.944 22.472 110.896 22.328 110.8 22.264C110.704 22.168 110.656 21.992 110.656 21.736C110.656 21.544 110.752 21.368 110.944 21.208C111.136 21.016 111.552 20.92 112.192 20.92C112.448 20.92 112.64 21 112.768 21.16C112.928 21.288 113.04 21.448 113.104 21.64C113.168 21.832 113.2 22.024 113.2 22.216C113.232 22.376 113.248 22.488 113.248 22.552C113.248 22.584 113.232 22.808 113.2 23.224C113.168 23.64 113.136 24.104 113.104 24.616C113.104 25.096 113.088 25.56 113.056 26.008C113.024 26.456 113.008 26.728 113.008 26.824C113.008 26.92 113.056 27.112 113.152 27.4C113.248 27.688 113.36 27.992 113.488 28.312C113.648 28.6 113.824 28.872 114.016 29.128C114.208 29.352 114.416 29.464 114.64 29.464C115.024 29.464 115.376 29.416 115.696 29.32C116.048 29.192 116.368 29.064 116.656 28.936C116.976 28.776 117.264 28.648 117.52 28.552C117.776 28.424 118.016 28.36 118.24 28.36C118.528 28.36 118.784 28.424 119.008 28.552C119.264 28.68 119.392 28.84 119.392 29.032ZM132.646 22.36C132.646 22.584 132.55 22.776 132.358 22.936C132.166 23.064 131.942 23.176 131.686 23.272C131.43 23.368 131.174 23.448 130.918 23.512C130.662 23.544 130.454 23.56 130.294 23.56C129.814 23.56 129.494 23.528 129.334 23.464C129.174 23.4 129.046 23.368 128.95 23.368C128.15 23.368 127.51 23.432 127.03 23.56C126.55 23.688 126.166 23.896 125.878 24.184C125.622 24.472 125.446 24.84 125.35 25.288C125.286 25.704 125.254 26.216 125.254 26.824C125.254 27.848 125.286 28.664 125.35 29.272C125.446 29.88 125.526 30.376 125.59 30.76C125.686 31.144 125.766 31.448 125.83 31.672C125.926 31.864 125.974 32.056 125.974 32.248C125.974 32.504 125.83 32.776 125.542 33.064C125.286 33.352 125.046 33.496 124.822 33.496C124.438 33.496 124.086 33.16 123.766 32.488C123.478 31.784 123.222 30.968 122.998 30.04C122.806 29.08 122.646 28.136 122.518 27.208C122.39 26.28 122.326 25.576 122.326 25.096C122.326 24.552 122.374 24.04 122.47 23.56C122.566 23.048 122.694 22.616 122.854 22.264C123.014 21.88 123.19 21.576 123.382 21.352C123.574 21.128 123.766 21.016 123.958 21.016C124.118 21.016 124.246 21.08 124.342 21.208C124.438 21.304 124.518 21.432 124.582 21.592C124.646 21.72 124.71 21.848 124.774 21.976C124.87 22.072 124.982 22.12 125.11 22.12C125.398 22.12 125.862 21.976 126.502 21.688C127.142 21.4 127.926 21.256 128.854 21.256C129.718 21.256 130.358 21.288 130.774 21.352C131.222 21.384 131.654 21.48 132.07 21.64C132.166 21.672 132.278 21.752 132.406 21.88C132.566 21.976 132.646 22.136 132.646 22.36ZM149.85 31.96C149.882 32.024 149.898 32.12 149.898 32.248C149.898 32.44 149.754 32.728 149.466 33.112C149.37 33.24 149.162 33.448 148.842 33.736C148.522 34.024 148.09 34.312 147.546 34.6C147.002 34.888 146.33 35.144 145.53 35.368C144.762 35.592 143.85 35.704 142.794 35.704C142.058 35.704 141.338 35.544 140.634 35.224C139.93 34.872 139.306 34.376 138.762 33.736C138.218 33.064 137.77 32.248 137.418 31.288C137.066 30.296 136.89 29.144 136.89 27.832C136.89 26.584 137.05 25.416 137.37 24.328C137.69 23.24 138.09 22.28 138.57 21.448C139.082 20.616 139.642 19.96 140.25 19.48C140.858 19 141.45 18.76 142.026 18.76C142.538 18.76 143.05 18.872 143.562 19.096C144.106 19.288 144.586 19.544 145.002 19.864C145.45 20.184 145.802 20.552 146.058 20.968C146.314 21.352 146.442 21.752 146.442 22.168C146.442 22.648 146.218 23.144 145.77 23.656C145.354 24.168 144.842 24.648 144.234 25.096C143.626 25.512 143.018 25.864 142.41 26.152C141.802 26.408 141.322 26.536 140.97 26.536C140.778 26.536 140.602 26.456 140.442 26.296C140.314 26.104 140.25 25.88 140.25 25.624C140.25 25.176 140.442 24.824 140.826 24.568C141.242 24.312 141.69 24.088 142.17 23.896C142.65 23.672 143.082 23.416 143.466 23.128C143.882 22.84 144.09 22.44 144.09 21.928C144.09 21.864 144.01 21.704 143.85 21.448C143.69 21.192 143.258 21.064 142.554 21.064C142.234 21.064 141.866 21.256 141.45 21.64C141.034 21.992 140.634 22.488 140.25 23.128C139.866 23.736 139.546 24.472 139.29 25.336C139.034 26.168 138.906 27.08 138.906 28.072C138.906 28.904 139.05 29.656 139.338 30.328C139.658 31 140.058 31.576 140.538 32.056C141.018 32.504 141.578 32.856 142.218 33.112C142.858 33.368 143.514 33.496 144.186 33.496C144.666 33.496 145.178 33.4 145.722 33.208C146.298 32.984 146.826 32.76 147.306 32.536C147.818 32.28 148.25 32.056 148.602 31.864C148.986 31.64 149.226 31.528 149.322 31.528C149.418 31.528 149.514 31.576 149.61 31.672C149.738 31.768 149.818 31.864 149.85 31.96ZM166.824 29.272C166.824 29.432 166.744 29.592 166.584 29.752C166.456 29.88 166.376 30.024 166.344 30.184C166.344 30.536 166.408 30.872 166.536 31.192C166.696 31.512 166.776 31.896 166.776 32.344C166.776 32.76 166.648 32.968 166.392 32.968C166.072 32.968 165.832 33.016 165.672 33.112C165.544 33.176 165.304 33.24 164.952 33.304C164.76 33.304 164.552 33.128 164.328 32.776C164.2 32.616 164.088 32.424 163.992 32.2C163.992 32.168 163.896 32.232 163.704 32.392C163.544 32.552 163.256 32.744 162.84 32.968C162.456 33.16 161.912 33.352 161.208 33.544C160.536 33.704 159.672 33.784 158.616 33.784C157.72 33.784 156.936 33.592 156.264 33.208C155.592 32.792 155.032 32.264 154.584 31.624C154.168 30.984 153.848 30.264 153.624 29.464C153.432 28.632 153.336 27.8 153.336 26.968C153.336 26.2 153.416 25.48 153.576 24.808C153.768 24.104 154.024 23.496 154.344 22.984C154.664 22.44 155.064 22.008 155.544 21.688C156.024 21.368 156.584 21.208 157.224 21.208C157.832 21.208 158.44 21.4 159.048 21.784C159.656 22.168 160.2 22.584 160.68 23.032C161.16 23.48 161.544 23.896 161.832 24.28C162.152 24.632 162.312 24.808 162.312 24.808C161.864 22.312 161.464 20.056 161.112 18.04C160.952 17.176 160.792 16.328 160.632 15.496C160.504 14.632 160.376 13.864 160.248 13.192C160.12 12.52 160.008 11.96 159.912 11.512C159.848 11.032 159.816 10.744 159.816 10.648C159.784 10.456 159.752 10.12 159.72 9.64C159.688 9.128 159.656 8.6 159.624 8.056C159.592 7.512 159.56 7.016 159.528 6.568C159.496 6.12 159.464 5.832 159.432 5.704C159.336 5.384 159.208 4.984 159.048 4.504C158.92 4.024 158.856 3.752 158.856 3.688C158.856 3.528 158.936 3.336 159.096 3.112C159.256 2.856 159.464 2.728 159.72 2.728C159.912 2.728 160.088 2.744 160.248 2.776C160.408 2.808 160.552 2.904 160.68 3.064C160.808 3.224 160.92 3.48 161.016 3.832C161.144 4.152 161.256 4.616 161.352 5.224C161.384 5.544 161.48 6.152 161.64 7.048C161.8 7.944 161.96 8.92 162.12 9.976C162.28 11.032 162.44 12.04 162.6 13C162.76 13.96 162.872 14.664 162.936 15.112C163.096 16.328 163.304 17.656 163.56 19.096C163.848 20.504 164.136 21.864 164.424 23.176C164.712 24.488 165 25.656 165.288 26.68C165.576 27.672 165.832 28.344 166.056 28.696C166.12 28.824 166.248 28.92 166.44 28.984C166.632 29.016 166.76 29.112 166.824 29.272ZM163.272 30.232C163.24 30.136 163.032 29.736 162.648 29.032C162.296 28.296 161.832 27.512 161.256 26.68C160.712 25.816 160.088 25.048 159.384 24.376C158.712 23.704 158.056 23.368 157.416 23.368C156.872 23.368 156.424 23.784 156.072 24.616C155.752 25.448 155.592 26.408 155.592 27.496C155.592 28.712 155.944 29.688 156.648 30.424C157.384 31.16 158.2 31.528 159.096 31.528C159.864 31.528 160.664 31.4 161.496 31.144C162.328 30.888 162.92 30.584 163.272 30.232Z" fill="#B450AC" fill-opacity="0.28"/>
<path d="M12.5761 83.9844V54.2969H16.3261L16.7168 58.6719V83.9844H12.5761ZM22.5957 75.3906C21.0071 75.3906 19.7246 75.026 18.748 74.2969C17.7845 73.5677 17.2376 72.5521 17.1074 71.25H15.3105L16.7168 65.3516C16.7168 67.487 17.1334 69.1081 17.9668 70.2148C18.8131 71.3216 20.0501 71.875 21.6777 71.875C23.3444 71.875 24.6074 71.2826 25.4668 70.0977C26.3261 68.9128 26.7558 67.1615 26.7558 64.8438C26.7558 62.3958 26.3261 60.5469 25.4668 59.2969C24.6074 58.0469 23.3444 57.4219 21.6777 57.4219C20.0501 57.4219 18.8131 57.9753 17.9668 59.082C17.1334 60.1888 16.7168 61.8099 16.7168 63.9453L15.3105 58.0469H16.9121C17.0944 56.7448 17.6803 55.7292 18.6699 55C19.6725 54.2708 20.9811 53.9062 22.5957 53.9062C25.317 53.9062 27.3743 54.8307 28.7675 56.6797C30.1608 58.5286 30.8574 61.25 30.8574 64.8438C30.8574 68.3073 30.1608 70.931 28.7675 72.7148C27.3743 74.4987 25.317 75.3906 22.5957 75.3906ZM51.109 75.1953L50.8355 69.0625L50.2886 67.3438V61.9922C50.2886 60.612 49.8004 59.6029 48.8238 58.9648C47.8603 58.3138 46.4215 57.9622 44.5074 57.9102L39.5465 57.7734L39.9371 54.1016L44.1168 54.1602C47.5412 54.2122 50.0803 54.9544 51.734 56.3867C53.4006 57.806 54.234 59.8828 54.234 62.6172V71.25L57.7496 71.6797V75L51.109 75.1953ZM43.8043 75.3906C41.6428 75.3906 39.9696 74.8698 38.7847 73.8281C37.5998 72.7865 37.0074 71.3151 37.0074 69.4141C37.0074 67.2266 37.8212 65.5469 39.4488 64.375C41.0894 63.2031 43.4006 62.6172 46.3824 62.6172C47.6194 62.6172 48.7196 62.6953 49.6832 62.8516C50.6597 62.9948 51.5256 63.2161 52.2808 63.5156L51.4215 66.3281C50.5491 66.1328 49.6962 66.0221 48.8629 65.9961C48.0295 65.957 47.1767 65.9375 46.3043 65.9375C42.7105 65.9375 40.9136 67.0312 40.9136 69.2188C40.9136 70.1302 41.2196 70.8333 41.8316 71.3281C42.4566 71.8229 43.3355 72.0703 44.4683 72.0703C45.7574 72.0703 46.8316 71.849 47.691 71.4062C48.5634 70.9635 49.2144 70.3971 49.6441 69.707C50.0738 69.0169 50.2886 68.3073 50.2886 67.5781V65.3125L51.4996 70.625H49.859L50.523 70C50.523 71.1979 50.2431 72.2005 49.6832 73.0078C49.1363 73.8021 48.3616 74.401 47.359 74.8047C46.3563 75.1953 45.1715 75.3906 43.8043 75.3906ZM71.0871 75.3906C69.5246 75.3906 68.1834 75.3451 67.0636 75.2539C65.9569 75.1628 64.9412 75.013 64.0168 74.8047L64.4855 71.0547C65.8527 71.263 67.0571 71.4193 68.0988 71.5234C69.1535 71.6276 70.1496 71.6797 71.0871 71.6797C73.1834 71.6797 74.7004 71.4779 75.6379 71.0742C76.5884 70.6576 77.0636 70 77.0636 69.1016C77.0636 68.4766 76.8944 68.0143 76.5558 67.7148C76.2303 67.4023 75.7225 67.1615 75.0324 66.9922L70.2668 65.7812C68.2225 65.2604 66.7186 64.6159 65.755 63.8477C64.8045 63.0794 64.3293 61.9141 64.3293 60.3516C64.3293 58.0859 65.1952 56.4453 66.9269 55.4297C68.6717 54.4141 71.4777 53.9062 75.3449 53.9062C76.3475 53.9062 77.2785 53.9388 78.1379 54.0039C79.0103 54.056 79.9022 54.1536 80.8136 54.2969L80.384 57.8906C79.3293 57.7865 78.3983 57.7148 77.591 57.6758C76.7837 57.6367 75.9959 57.6172 75.2277 57.6172C72.91 57.6172 71.2303 57.819 70.1886 58.2227C69.147 58.6133 68.6261 59.2578 68.6261 60.1562C68.6261 60.7552 68.841 61.1914 69.2707 61.4648C69.7004 61.7253 70.3579 61.9661 71.2433 62.1875L75.0715 63.125C77.2459 63.6458 78.8345 64.3424 79.8371 65.2148C80.8527 66.0872 81.3605 67.3568 81.3605 69.0234C81.3605 71.25 80.5467 72.8711 78.9191 73.8867C77.2915 74.8893 74.6808 75.3906 71.0871 75.3906ZM96.9246 75.3906C95.3621 75.3906 94.0209 75.3451 92.9011 75.2539C91.7944 75.1628 90.7787 75.013 89.8543 74.8047L90.323 71.0547C91.6902 71.263 92.8946 71.4193 93.9363 71.5234C94.991 71.6276 95.9871 71.6797 96.9246 71.6797C99.0209 71.6797 100.538 71.4779 101.475 71.0742C102.426 70.6576 102.901 70 102.901 69.1016C102.901 68.4766 102.732 68.0143 102.393 67.7148C102.068 67.4023 101.56 67.1615 100.87 66.9922L96.1043 65.7812C94.06 65.2604 92.5561 64.6159 91.5925 63.8477C90.642 63.0794 90.1668 61.9141 90.1668 60.3516C90.1668 58.0859 91.0326 56.4453 92.7644 55.4297C94.5092 54.4141 97.3152 53.9062 101.182 53.9062C102.185 53.9062 103.116 53.9388 103.975 54.0039C104.848 54.056 105.74 54.1536 106.651 54.2969L106.221 57.8906C105.167 57.7865 104.236 57.7148 103.428 57.6758C102.621 57.6367 101.833 57.6172 101.065 57.6172C98.7475 57.6172 97.0678 57.819 96.0261 58.2227C94.9845 58.6133 94.4636 59.2578 94.4636 60.1562C94.4636 60.7552 94.6785 61.1914 95.1082 61.4648C95.5379 61.7253 96.1954 61.9661 97.0808 62.1875L100.909 63.125C103.083 63.6458 104.672 64.3424 105.675 65.2148C106.69 66.0872 107.198 67.3568 107.198 69.0234C107.198 71.25 106.384 72.8711 104.757 73.8867C103.129 74.8893 100.518 75.3906 96.9246 75.3906ZM126.707 75L124.286 58.5547H123.973L122.274 54.2969H126.063L128.504 71.875H128.856L130.614 54.2969H134.715L131.786 75H126.707ZM116.356 75L114.012 54.2969H117.918L119.481 71.875H119.832L122.274 54.2969H126.063L124.325 58.5547H124.051L121.629 75H116.356ZM150.201 75.3906C147.337 75.3906 145.11 74.4531 143.521 72.5781C141.933 70.7031 141.139 68.0599 141.139 64.6484C141.139 61.224 141.933 58.5807 143.521 56.7188C145.11 54.8438 147.337 53.9062 150.201 53.9062C153.079 53.9062 155.305 54.8438 156.881 56.7188C158.469 58.5807 159.264 61.224 159.264 64.6484C159.264 68.0599 158.469 70.7031 156.881 72.5781C155.305 74.4531 153.079 75.3906 150.201 75.3906ZM150.201 71.6797C151.725 71.6797 152.896 71.0677 153.717 69.8438C154.55 68.6198 154.967 66.888 154.967 64.6484C154.967 62.3958 154.55 60.6641 153.717 59.4531C152.896 58.2292 151.725 57.6172 150.201 57.6172C148.678 57.6172 147.499 58.2292 146.666 59.4531C145.846 60.6641 145.436 62.3958 145.436 64.6484C145.436 66.888 145.846 68.6198 146.666 69.8438C147.499 71.0677 148.678 71.6797 150.201 71.6797ZM174.632 66.0938L173.421 59.6094H175.023C175.257 55.8073 177.158 53.9062 180.726 53.9062C182.862 53.9062 184.411 54.5182 185.375 55.7422C186.338 56.9661 186.82 58.9453 186.82 61.6797H182.718C182.718 60.1693 182.49 59.082 182.035 58.418C181.592 57.7539 180.869 57.4219 179.867 57.4219C178.109 57.4219 176.794 58.1771 175.921 59.6875C175.062 61.1849 174.632 63.3203 174.632 66.0938ZM165.882 75V71.3672H179.711V75H165.882ZM170.492 75V54.2969H173.851L174.632 60.2344V75H170.492ZM166.664 57.9297V54.2969H173.578L173.968 57.9297H166.664ZM200.294 75.3906C197.586 75.3906 195.528 74.4987 194.122 72.7148C192.729 70.931 192.032 68.3073 192.032 64.8438C192.032 61.25 192.729 58.5286 194.122 56.6797C195.528 54.8307 197.586 53.9062 200.294 53.9062C201.844 53.9062 203.1 54.2708 204.064 55C205.04 55.7292 205.613 56.7448 205.782 58.0469H207.384L206.173 63.9453C206.173 61.8099 205.75 60.1888 204.903 59.082C204.07 57.9753 202.84 57.4219 201.212 57.4219C199.545 57.4219 198.282 58.0469 197.423 59.2969C196.564 60.5469 196.134 62.3958 196.134 64.8438C196.134 67.1615 196.564 68.9128 197.423 70.0977C198.282 71.2826 199.545 71.875 201.212 71.875C202.84 71.875 204.07 71.3216 204.903 70.2148C205.75 69.1081 206.173 67.487 206.173 65.3516L207.579 71.25H205.782C205.652 72.5521 205.099 73.5677 204.122 74.2969C203.159 75.026 201.883 75.3906 200.294 75.3906ZM206.603 75.1953L206.173 71.1328V45.7031H210.314V75L206.603 75.1953ZM226.112 75.3906C224.55 75.3906 223.208 75.3451 222.089 75.2539C220.982 75.1628 219.966 75.013 219.042 74.8047L219.511 71.0547C220.878 71.263 222.082 71.4193 223.124 71.5234C224.178 71.6276 225.175 71.6797 226.112 71.6797C228.208 71.6797 229.725 71.4779 230.663 71.0742C231.613 70.6576 232.089 70 232.089 69.1016C232.089 68.4766 231.919 68.0143 231.581 67.7148C231.255 67.4023 230.747 67.1615 230.057 66.9922L225.292 65.7812C223.247 65.2604 221.744 64.6159 220.78 63.8477C219.83 63.0794 219.354 61.9141 219.354 60.3516C219.354 58.0859 220.22 56.4453 221.952 55.4297C223.697 54.4141 226.503 53.9062 230.37 53.9062C231.372 53.9062 232.303 53.9388 233.163 54.0039C234.035 54.056 234.927 54.1536 235.839 54.2969L235.409 57.8906C234.354 57.7865 233.423 57.7148 232.616 57.6758C231.809 57.6367 231.021 57.6172 230.253 57.6172C227.935 57.6172 226.255 57.819 225.214 58.2227C224.172 58.6133 223.651 59.2578 223.651 60.1562C223.651 60.7552 223.866 61.1914 224.296 61.4648C224.725 61.7253 225.383 61.9661 226.268 62.1875L230.096 63.125C232.271 63.6458 233.859 64.3424 234.862 65.2148C235.878 66.0872 236.386 67.3568 236.386 69.0234C236.386 71.25 235.572 72.8711 233.944 73.8867C232.317 74.8893 229.706 75.3906 226.112 75.3906Z" fill="white"/>
<path d="M174.148 19.5641C174.148 17.355 175.939 15.5641 178.148 15.5641H207.703C209.912 15.5641 211.703 17.355 211.703 19.5641V25.4431C211.703 27.6522 209.912 29.4431 207.703 29.4431H178.148C175.939 29.4431 174.148 27.6522 174.148 25.4431V19.5641Z" fill="#B450AC"/>
<path d="M207.25 11H178.75C177.491 11.0035 176.285 11.4777 175.395 12.319C174.505 13.1603 174.004 14.3004 174 15.4902V31.6551C174.004 32.8449 174.505 33.985 175.395 34.8263C176.285 35.6676 177.491 36.1418 178.75 36.1453H207.25C208.509 36.1418 209.715 35.6676 210.605 34.8263C211.495 33.985 211.996 32.8449 212 31.6551V15.4902C211.996 14.3004 211.495 13.1603 210.605 12.319C209.715 11.4777 208.509 11.0035 207.25 11ZM185.413 24.5138C185.532 24.5784 185.637 24.6647 185.72 24.7676C185.804 24.8705 185.866 24.988 185.901 25.1134C185.937 25.2388 185.946 25.3696 185.928 25.4983C185.911 25.6271 185.866 25.7513 185.797 25.8637C185.729 25.9762 185.637 26.0747 185.528 26.1537C185.419 26.2327 185.295 26.2906 185.162 26.324C185.029 26.3575 184.891 26.3659 184.755 26.3487C184.618 26.3315 184.487 26.2891 184.368 26.2239L184.296 26.1847C183.552 25.7785 182.645 26.3171 182.645 27.1649V27.1649C182.645 27.4268 182.535 27.678 182.339 27.8632C182.143 28.0484 181.877 28.1524 181.6 28.1524C181.323 28.1524 181.057 28.0484 180.861 27.8632C180.665 27.678 180.555 27.4268 180.555 27.1649V27.1649C180.555 26.3171 179.648 25.7785 178.904 26.1847L178.832 26.2239C178.592 26.3542 178.307 26.3892 178.04 26.3212C177.773 26.2533 177.545 26.0879 177.407 25.8615C177.269 25.635 177.231 25.366 177.302 25.1133C177.373 24.8607 177.548 24.645 177.787 24.5138V24.5138C178.532 24.1074 178.532 23.0381 177.787 22.6317V22.6317C177.548 22.5005 177.373 22.2849 177.302 22.0322C177.231 21.7795 177.269 21.5105 177.407 21.284C177.545 21.0576 177.773 20.8922 178.04 20.8243C178.307 20.7563 178.592 20.7913 178.832 20.9216L178.904 20.9608C179.648 21.367 180.555 20.8284 180.555 19.9806V19.9806C180.555 19.7187 180.665 19.4675 180.861 19.2823C181.057 19.0971 181.323 18.9931 181.6 18.9931C181.877 18.9931 182.143 19.0971 182.339 19.2823C182.535 19.4675 182.645 19.7187 182.645 19.9806V19.9806C182.645 20.8284 183.552 21.367 184.296 20.9608L184.368 20.9216C184.608 20.7913 184.893 20.7563 185.16 20.8243C185.427 20.8922 185.655 21.0576 185.793 21.284C185.931 21.5105 185.969 21.7795 185.898 22.0322C185.827 22.2849 185.652 22.5005 185.413 22.6317V22.6317C184.668 23.0381 184.668 24.1074 185.413 24.5138V24.5138ZM196.813 24.5138C196.932 24.5784 197.037 24.6647 197.12 24.7676C197.204 24.8705 197.266 24.988 197.301 25.1134C197.337 25.2388 197.346 25.3696 197.328 25.4983C197.311 25.6271 197.266 25.7513 197.197 25.8637C197.129 25.9762 197.037 26.0747 196.928 26.1537C196.819 26.2327 196.695 26.2906 196.562 26.324C196.429 26.3575 196.291 26.3659 196.155 26.3487C196.018 26.3315 195.887 26.2891 195.768 26.2239L195.696 26.1847C194.952 25.7785 194.045 26.3171 194.045 27.1649V27.1649C194.045 27.4268 193.935 27.678 193.739 27.8632C193.543 28.0484 193.277 28.1524 193 28.1524C192.723 28.1524 192.457 28.0484 192.261 27.8632C192.065 27.678 191.955 27.4268 191.955 27.1649V27.1649C191.955 26.3171 191.048 25.7785 190.304 26.1847L190.232 26.2239C189.992 26.3542 189.707 26.3892 189.44 26.3212C189.173 26.2533 188.945 26.0879 188.807 25.8615C188.669 25.635 188.631 25.366 188.702 25.1133C188.773 24.8607 188.948 24.645 189.187 24.5138V24.5138C189.932 24.1074 189.932 23.0381 189.187 22.6317V22.6317C188.948 22.5005 188.773 22.2849 188.702 22.0322C188.631 21.7795 188.669 21.5105 188.807 21.284C188.945 21.0576 189.173 20.8922 189.44 20.8243C189.707 20.7563 189.992 20.7913 190.232 20.9216L190.304 20.9608C191.048 21.367 191.955 20.8284 191.955 19.9806V19.9806C191.955 19.7187 192.065 19.4675 192.261 19.2823C192.457 19.0971 192.723 18.9931 193 18.9931C193.277 18.9931 193.543 19.0971 193.739 19.2823C193.935 19.4675 194.045 19.7187 194.045 19.9806V19.9806C194.045 20.8284 194.952 21.367 195.696 20.9608L195.768 20.9216C196.008 20.7913 196.293 20.7563 196.56 20.8243C196.827 20.8922 197.055 21.0576 197.193 21.284C197.331 21.5105 197.369 21.7795 197.298 22.0322C197.227 22.2849 197.052 22.5005 196.813 22.6317V22.6317C196.068 23.0381 196.068 24.1074 196.813 24.5138V24.5138ZM208.213 24.5138C208.332 24.5784 208.437 24.6647 208.52 24.7676C208.604 24.8705 208.666 24.988 208.701 25.1134C208.737 25.2388 208.746 25.3696 208.728 25.4983C208.711 25.6271 208.666 25.7513 208.597 25.8637C208.529 25.9762 208.437 26.0747 208.328 26.1537C208.219 26.2327 208.095 26.2906 207.962 26.324C207.829 26.3575 207.691 26.3659 207.555 26.3487C207.418 26.3315 207.287 26.2891 207.168 26.2239L207.096 26.1847C206.352 25.7785 205.445 26.3171 205.445 27.1649V27.1649C205.445 27.4268 205.335 27.678 205.139 27.8632C204.943 28.0484 204.677 28.1524 204.4 28.1524C204.123 28.1524 203.857 28.0484 203.661 27.8632C203.465 27.678 203.355 27.4268 203.355 27.1649V27.1649C203.355 26.3171 202.448 25.7785 201.704 26.1847L201.632 26.2239C201.392 26.3542 201.107 26.3892 200.84 26.3212C200.573 26.2533 200.345 26.0879 200.207 25.8615C200.069 25.635 200.031 25.366 200.102 25.1133C200.173 24.8607 200.348 24.645 200.587 24.5138V24.5138C201.332 24.1074 201.332 23.0381 200.587 22.6317V22.6317C200.348 22.5005 200.173 22.2849 200.102 22.0322C200.031 21.7795 200.069 21.5105 200.207 21.284C200.345 21.0576 200.573 20.8922 200.84 20.8243C201.107 20.7563 201.392 20.7913 201.632 20.9216L201.704 20.9608C202.448 21.367 203.355 20.8284 203.355 19.9806V19.9806C203.355 19.7187 203.465 19.4675 203.661 19.2823C203.857 19.0971 204.123 18.9931 204.4 18.9931C204.677 18.9931 204.943 19.0971 205.139 19.2823C205.335 19.4675 205.445 19.7187 205.445 19.9806V19.9806C205.445 20.8284 206.352 21.367 207.096 20.9608L207.168 20.9216C207.408 20.7913 207.693 20.7563 207.96 20.8243C208.227 20.8922 208.455 21.0576 208.593 21.284C208.731 21.5105 208.769 21.7795 208.698 22.0322C208.627 22.2849 208.452 22.5005 208.213 22.6317V22.6317C207.468 23.0381 207.468 24.1074 208.213 24.5138V24.5138Z" fill="white"/>
<path d="M174.148 21.5641C174.148 19.355 175.939 17.5641 178.148 17.5641H207.703C209.912 17.5641 211.703 19.355 211.703 21.5641V27.4431C211.703 29.6522 209.912 31.4431 207.703 31.4431H178.148C175.939 31.4431 174.148 29.6522 174.148 27.4431V21.5641Z" fill="#B450AC"/>
<path d="M207.25 13H178.75C177.491 13.0035 176.285 13.4777 175.395 14.319C174.505 15.1603 174.004 16.3004 174 17.4902V33.6551C174.004 34.8449 174.505 35.985 175.395 36.8263C176.285 37.6676 177.491 38.1418 178.75 38.1453H207.25C208.509 38.1418 209.715 37.6676 210.605 36.8263C211.495 35.985 211.996 34.8449 212 33.6551V17.4902C211.996 16.3004 211.495 15.1603 210.605 14.319C209.715 13.4777 208.509 13.0035 207.25 13ZM185.413 26.5138C185.532 26.5784 185.637 26.6647 185.72 26.7676C185.804 26.8705 185.866 26.988 185.901 27.1134C185.937 27.2388 185.946 27.3696 185.928 27.4983C185.911 27.6271 185.866 27.7513 185.797 27.8637C185.729 27.9762 185.637 28.0747 185.528 28.1537C185.419 28.2327 185.295 28.2906 185.162 28.324C185.029 28.3575 184.891 28.3659 184.755 28.3487C184.618 28.3315 184.487 28.2891 184.368 28.2239L184.296 28.1847C183.552 27.7785 182.645 28.3171 182.645 29.1649V29.1649C182.645 29.4268 182.535 29.678 182.339 29.8632C182.143 30.0484 181.877 30.1524 181.6 30.1524C181.323 30.1524 181.057 30.0484 180.861 29.8632C180.665 29.678 180.555 29.4268 180.555 29.1649V29.1649C180.555 28.3171 179.648 27.7785 178.904 28.1847L178.832 28.2239C178.592 28.3542 178.307 28.3892 178.04 28.3212C177.773 28.2533 177.545 28.0879 177.407 27.8615C177.269 27.635 177.231 27.366 177.302 27.1133C177.373 26.8607 177.548 26.645 177.787 26.5138V26.5138C178.532 26.1074 178.532 25.0381 177.787 24.6317V24.6317C177.548 24.5005 177.373 24.2849 177.302 24.0322C177.231 23.7795 177.269 23.5105 177.407 23.284C177.545 23.0576 177.773 22.8922 178.04 22.8243C178.307 22.7563 178.592 22.7913 178.832 22.9216L178.904 22.9608C179.648 23.367 180.555 22.8284 180.555 21.9806V21.9806C180.555 21.7187 180.665 21.4675 180.861 21.2823C181.057 21.0971 181.323 20.9931 181.6 20.9931C181.877 20.9931 182.143 21.0971 182.339 21.2823C182.535 21.4675 182.645 21.7187 182.645 21.9806V21.9806C182.645 22.8284 183.552 23.367 184.296 22.9608L184.368 22.9216C184.608 22.7913 184.893 22.7563 185.16 22.8243C185.427 22.8922 185.655 23.0576 185.793 23.284C185.931 23.5105 185.969 23.7795 185.898 24.0322C185.827 24.2849 185.652 24.5005 185.413 24.6317V24.6317C184.668 25.0381 184.668 26.1074 185.413 26.5138V26.5138ZM196.813 26.5138C196.932 26.5784 197.037 26.6647 197.12 26.7676C197.204 26.8705 197.266 26.988 197.301 27.1134C197.337 27.2388 197.346 27.3696 197.328 27.4983C197.311 27.6271 197.266 27.7513 197.197 27.8637C197.129 27.9762 197.037 28.0747 196.928 28.1537C196.819 28.2327 196.695 28.2906 196.562 28.324C196.429 28.3575 196.291 28.3659 196.155 28.3487C196.018 28.3315 195.887 28.2891 195.768 28.2239L195.696 28.1847C194.952 27.7785 194.045 28.3171 194.045 29.1649V29.1649C194.045 29.4268 193.935 29.678 193.739 29.8632C193.543 30.0484 193.277 30.1524 193 30.1524C192.723 30.1524 192.457 30.0484 192.261 29.8632C192.065 29.678 191.955 29.4268 191.955 29.1649V29.1649C191.955 28.3171 191.048 27.7785 190.304 28.1847L190.232 28.2239C189.992 28.3542 189.707 28.3892 189.44 28.3212C189.173 28.2533 188.945 28.0879 188.807 27.8615C188.669 27.635 188.631 27.366 188.702 27.1133C188.773 26.8607 188.948 26.645 189.187 26.5138V26.5138C189.932 26.1074 189.932 25.0381 189.187 24.6317V24.6317C188.948 24.5005 188.773 24.2849 188.702 24.0322C188.631 23.7795 188.669 23.5105 188.807 23.284C188.945 23.0576 189.173 22.8922 189.44 22.8243C189.707 22.7563 189.992 22.7913 190.232 22.9216L190.304 22.9608C191.048 23.367 191.955 22.8284 191.955 21.9806V21.9806C191.955 21.7187 192.065 21.4675 192.261 21.2823C192.457 21.0971 192.723 20.9931 193 20.9931C193.277 20.9931 193.543 21.0971 193.739 21.2823C193.935 21.4675 194.045 21.7187 194.045 21.9806V21.9806C194.045 22.8284 194.952 23.367 195.696 22.9608L195.768 22.9216C196.008 22.7913 196.293 22.7563 196.56 22.8243C196.827 22.8922 197.055 23.0576 197.193 23.284C197.331 23.5105 197.369 23.7795 197.298 24.0322C197.227 24.2849 197.052 24.5005 196.813 24.6317V24.6317C196.068 25.0381 196.068 26.1074 196.813 26.5138V26.5138ZM208.213 26.5138C208.332 26.5784 208.437 26.6647 208.52 26.7676C208.604 26.8705 208.666 26.988 208.701 27.1134C208.737 27.2388 208.746 27.3696 208.728 27.4983C208.711 27.6271 208.666 27.7513 208.597 27.8637C208.529 27.9762 208.437 28.0747 208.328 28.1537C208.219 28.2327 208.095 28.2906 207.962 28.324C207.829 28.3575 207.691 28.3659 207.555 28.3487C207.418 28.3315 207.287 28.2891 207.168 28.2239L207.096 28.1847C206.352 27.7785 205.445 28.3171 205.445 29.1649V29.1649C205.445 29.4268 205.335 29.678 205.139 29.8632C204.943 30.0484 204.677 30.1524 204.4 30.1524C204.123 30.1524 203.857 30.0484 203.661 29.8632C203.465 29.678 203.355 29.4268 203.355 29.1649V29.1649C203.355 28.3171 202.448 27.7785 201.704 28.1847L201.632 28.2239C201.392 28.3542 201.107 28.3892 200.84 28.3212C200.573 28.2533 200.345 28.0879 200.207 27.8615C200.069 27.635 200.031 27.366 200.102 27.1133C200.173 26.8607 200.348 26.645 200.587 26.5138V26.5138C201.332 26.1074 201.332 25.0381 200.587 24.6317V24.6317C200.348 24.5005 200.173 24.2849 200.102 24.0322C200.031 23.7795 200.069 23.5105 200.207 23.284C200.345 23.0576 200.573 22.8922 200.84 22.8243C201.107 22.7563 201.392 22.7913 201.632 22.9216L201.704 22.9608C202.448 23.367 203.355 22.8284 203.355 21.9806V21.9806C203.355 21.7187 203.465 21.4675 203.661 21.2823C203.857 21.0971 204.123 20.9931 204.4 20.9931C204.677 20.9931 204.943 21.0971 205.139 21.2823C205.335 21.4675 205.445 21.7187 205.445 21.9806V21.9806C205.445 22.8284 206.352 23.367 207.096 22.9608L207.168 22.9216C207.408 22.7913 207.693 22.7563 207.96 22.8243C208.227 22.8922 208.455 23.0576 208.593 23.284C208.731 23.5105 208.769 23.7795 208.698 24.0322C208.627 24.2849 208.452 24.5005 208.213 24.6317V24.6317C207.468 25.0381 207.468 26.1074 208.213 26.5138V26.5138Z" fill="white"/>
</svg>
